<svg
    version="1.1"
    xmlns="http://www.w3.org/2000/svg"
    xmlns:xlink="http://www.w3.org/1999/xlink"
    width="561" height="255"
    >
  <defs>
    <rect id="s1" width="561" height="255" />
    <text id="s10" font-size="12" >o</text>
    <text id="s11" font-size="12" >7</text>
    <text id="s12" font-size="12" >7</text>
    <text id="s13" font-size="12" >0</text>
    <text id="s14" font-size="12" >1</text>
    <text id="s15" font-size="12" >1</text>
    <text id="s16" font-size="12" >7</text>
    <rect id="s2" width="3" height="180" />
    <text id="s3" font-size="12" >c</text>
    <text id="s4" font-size="12" >h</text>
    <text id="s5" font-size="12" >e</text>
    <text id="s6" font-size="12" >n</text>
    <text id="s7" font-size="12" >x</text>
    <text id="s8" font-size="12" >i</text>
    <text id="s9" font-size="12" >a</text>
  </defs>

  <symbol id="default">
    <use xlink:href="#s1" fill="white" />
    <use xlink:href="#s2" x="33" y="33" fill="black" />
    <use xlink:href="#s2" x="36" y="33" fill="black" />
    <use xlink:href="#s2" x="42" y="33" fill="black" />
    <use xlink:href="#s2" x="51" y="33" fill="black" />
    <use xlink:href="#s2" x="66" y="33" fill="black" />
    <use xlink:href="#s2" x="81" y="33" fill="black" />
    <use xlink:href="#s2" x="87" y="33" fill="black" />
    <use xlink:href="#s2" x="90" y="33" fill="black" />
    <use xlink:href="#s2" x="99" y="33" fill="black" />
    <use xlink:href="#s2" x="108" y="33" fill="black" />
    <use xlink:href="#s2" x="111" y="33" fill="black" />
    <use xlink:href="#s2" x="126" y="33" fill="black" />
    <use xlink:href="#s2" x="132" y="33" fill="black" />
    <use xlink:href="#s2" x="138" y="33" fill="black" />
    <use xlink:href="#s2" x="141" y="33" fill="black" />
    <use xlink:href="#s2" x="150" y="33" fill="black" />
    <use xlink:href="#s2" x="165" y="33" fill="black" />
    <use xlink:href="#s2" x="168" y="33" fill="black" />
    <use xlink:href="#s2" x="183" y="33" fill="black" />
    <use xlink:href="#s2" x="189" y="33" fill="black" />
    <use xlink:href="#s2" x="198" y="33" fill="black" />
    <use xlink:href="#s2" x="201" y="33" fill="black" />
    <use xlink:href="#s2" x="204" y="33" fill="black" />
    <use xlink:href="#s2" x="207" y="33" fill="black" />
    <use xlink:href="#s2" x="216" y="33" fill="black" />
    <use xlink:href="#s2" x="225" y="33" fill="black" />
    <use xlink:href="#s2" x="231" y="33" fill="black" />
    <use xlink:href="#s2" x="246" y="33" fill="black" />
    <use xlink:href="#s2" x="249" y="33" fill="black" />
    <use xlink:href="#s2" x="255" y="33" fill="black" />
    <use xlink:href="#s2" x="264" y="33" fill="black" />
    <use xlink:href="#s2" x="273" y="33" fill="black" />
    <use xlink:href="#s2" x="279" y="33" fill="black" />
    <use xlink:href="#s2" x="282" y="33" fill="black" />
    <use xlink:href="#s2" x="297" y="33" fill="black" />
    <use xlink:href="#s2" x="309" y="33" fill="black" />
    <use xlink:href="#s2" x="312" y="33" fill="black" />
    <use xlink:href="#s2" x="315" y="33" fill="black" />
    <use xlink:href="#s2" x="318" y="33" fill="black" />
    <use xlink:href="#s2" x="324" y="33" fill="black" />
    <use xlink:href="#s2" x="330" y="33" fill="black" />
    <use xlink:href="#s2" x="336" y="33" fill="black" />
    <use xlink:href="#s2" x="339" y="33" fill="black" />
    <use xlink:href="#s2" x="342" y="33" fill="black" />
    <use xlink:href="#s2" x="348" y="33" fill="black" />
    <use xlink:href="#s2" x="351" y="33" fill="black" />
    <use xlink:href="#s2" x="354" y="33" fill="black" />
    <use xlink:href="#s2" x="357" y="33" fill="black" />
    <use xlink:href="#s2" x="363" y="33" fill="black" />
    <use xlink:href="#s2" x="366" y="33" fill="black" />
    <use xlink:href="#s2" x="369" y="33" fill="black" />
    <use xlink:href="#s2" x="372" y="33" fill="black" />
    <use xlink:href="#s2" x="378" y="33" fill="black" />
    <use xlink:href="#s2" x="381" y="33" fill="black" />
    <use xlink:href="#s2" x="384" y="33" fill="black" />
    <use xlink:href="#s2" x="390" y="33" fill="black" />
    <use xlink:href="#s2" x="396" y="33" fill="black" />
    <use xlink:href="#s2" x="399" y="33" fill="black" />
    <use xlink:href="#s2" x="408" y="33" fill="black" />
    <use xlink:href="#s2" x="411" y="33" fill="black" />
    <use xlink:href="#s2" x="417" y="33" fill="black" />
    <use xlink:href="#s2" x="420" y="33" fill="black" />
    <use xlink:href="#s2" x="429" y="33" fill="black" />
    <use xlink:href="#s2" x="438" y="33" fill="black" />
    <use xlink:href="#s2" x="441" y="33" fill="black" />
    <use xlink:href="#s2" x="444" y="33" fill="black" />
    <use xlink:href="#s2" x="453" y="33" fill="black" />
    <use xlink:href="#s2" x="456" y="33" fill="black" />
    <use xlink:href="#s2" x="462" y="33" fill="black" />
    <use xlink:href="#s2" x="465" y="33" fill="black" />
    <use xlink:href="#s2" x="477" y="33" fill="black" />
    <use xlink:href="#s2" x="483" y="33" fill="black" />
    <use xlink:href="#s2" x="495" y="33" fill="black" />
    <use xlink:href="#s2" x="498" y="33" fill="black" />
    <use xlink:href="#s2" x="510" y="33" fill="black" />
    <use xlink:href="#s2" x="513" y="33" fill="black" />
    <use xlink:href="#s2" x="516" y="33" fill="black" />
    <use xlink:href="#s2" x="522" y="33" fill="black" />
    <use xlink:href="#s2" x="528" y="33" fill="black" />
    <use xlink:href="#s2" x="531" y="33" fill="black" />
    <use xlink:href="#s3" x="48" y="224" fill="black" />
    <use xlink:href="#s4" x="84" y="224" fill="black" />
    <use xlink:href="#s5" x="120" y="224" fill="black" />
    <use xlink:href="#s6" x="156" y="224" fill="black" />
    <use xlink:href="#s7" x="192" y="224" fill="black" />
    <use xlink:href="#s8" x="228" y="224" fill="black" />
    <use xlink:href="#s9" x="264" y="224" fill="black" />
    <use xlink:href="#s10" x="300" y="224" fill="black" />
    <use xlink:href="#s11" x="336" y="224" fill="black" />
    <use xlink:href="#s12" x="372" y="224" fill="black" />
    <use xlink:href="#s13" x="408" y="224" fill="black" />
    <use xlink:href="#s14" x="444" y="224" fill="black" />
    <use xlink:href="#s15" x="480" y="224" fill="black" />
    <use xlink:href="#s16" x="516" y="224" fill="black" />
  </symbol>

  <use xlink:href="#default" fill="none" />
</svg>
