<svg
    version="1.1"
    xmlns="http://www.w3.org/2000/svg"
    xmlns:xlink="http://www.w3.org/1999/xlink"
    width="561" height="255"
    >
  <defs>
    <text id="s10" font-size="12">a</text>
    <text id="s11" font-size="12">o</text>
    <text id="s12" font-size="12">7</text>
    <text id="s13" font-size="12">7</text>
    <text id="s14" font-size="12">0</text>
    <text id="s15" font-size="12">1</text>
    <text id="s16" font-size="12">1</text>
    <text id="s17" font-size="12">7</text>
    <rect id="s2" width="561" height="255" />
    <rect id="s3" width="3" height="180" />
    <text id="s4" font-size="12">c</text>
    <text id="s5" font-size="12">h</text>
    <text id="s6" font-size="12">e</text>
    <text id="s7" font-size="12">n</text>
    <text id="s8" font-size="12">x</text>
    <text id="s9" font-size="12">i</text>
  </defs>

  <symbol id="g1">
    <use xlink:href="#s2" fill="white" />
    <use xlink:href="#s3" x="33" y="33" fill="black" />
    <use xlink:href="#s3" x="36" y="33" fill="black" />
    <use xlink:href="#s3" x="42" y="33" fill="black" />
    <use xlink:href="#s3" x="51" y="33" fill="black" />
    <use xlink:href="#s3" x="66" y="33" fill="black" />
    <use xlink:href="#s3" x="81" y="33" fill="black" />
    <use xlink:href="#s3" x="87" y="33" fill="black" />
    <use xlink:href="#s3" x="90" y="33" fill="black" />
    <use xlink:href="#s3" x="99" y="33" fill="black" />
    <use xlink:href="#s3" x="108" y="33" fill="black" />
    <use xlink:href="#s3" x="111" y="33" fill="black" />
    <use xlink:href="#s3" x="126" y="33" fill="black" />
    <use xlink:href="#s3" x="132" y="33" fill="black" />
    <use xlink:href="#s3" x="138" y="33" fill="black" />
    <use xlink:href="#s3" x="141" y="33" fill="black" />
    <use xlink:href="#s3" x="150" y="33" fill="black" />
    <use xlink:href="#s3" x="165" y="33" fill="black" />
    <use xlink:href="#s3" x="168" y="33" fill="black" />
    <use xlink:href="#s3" x="183" y="33" fill="black" />
    <use xlink:href="#s3" x="189" y="33" fill="black" />
    <use xlink:href="#s3" x="198" y="33" fill="black" />
    <use xlink:href="#s3" x="201" y="33" fill="black" />
    <use xlink:href="#s3" x="204" y="33" fill="black" />
    <use xlink:href="#s3" x="207" y="33" fill="black" />
    <use xlink:href="#s3" x="216" y="33" fill="black" />
    <use xlink:href="#s3" x="225" y="33" fill="black" />
    <use xlink:href="#s3" x="231" y="33" fill="black" />
    <use xlink:href="#s3" x="246" y="33" fill="black" />
    <use xlink:href="#s3" x="249" y="33" fill="black" />
    <use xlink:href="#s3" x="255" y="33" fill="black" />
    <use xlink:href="#s3" x="264" y="33" fill="black" />
    <use xlink:href="#s3" x="273" y="33" fill="black" />
    <use xlink:href="#s3" x="279" y="33" fill="black" />
    <use xlink:href="#s3" x="282" y="33" fill="black" />
    <use xlink:href="#s3" x="297" y="33" fill="black" />
    <use xlink:href="#s3" x="309" y="33" fill="black" />
    <use xlink:href="#s3" x="312" y="33" fill="black" />
    <use xlink:href="#s3" x="315" y="33" fill="black" />
    <use xlink:href="#s3" x="318" y="33" fill="black" />
    <use xlink:href="#s3" x="324" y="33" fill="black" />
    <use xlink:href="#s3" x="330" y="33" fill="black" />
    <use xlink:href="#s3" x="336" y="33" fill="black" />
    <use xlink:href="#s3" x="339" y="33" fill="black" />
    <use xlink:href="#s3" x="342" y="33" fill="black" />
    <use xlink:href="#s3" x="348" y="33" fill="black" />
    <use xlink:href="#s3" x="351" y="33" fill="black" />
    <use xlink:href="#s3" x="354" y="33" fill="black" />
    <use xlink:href="#s3" x="357" y="33" fill="black" />
    <use xlink:href="#s3" x="363" y="33" fill="black" />
    <use xlink:href="#s3" x="366" y="33" fill="black" />
    <use xlink:href="#s3" x="369" y="33" fill="black" />
    <use xlink:href="#s3" x="372" y="33" fill="black" />
    <use xlink:href="#s3" x="378" y="33" fill="black" />
    <use xlink:href="#s3" x="381" y="33" fill="black" />
    <use xlink:href="#s3" x="384" y="33" fill="black" />
    <use xlink:href="#s3" x="390" y="33" fill="black" />
    <use xlink:href="#s3" x="396" y="33" fill="black" />
    <use xlink:href="#s3" x="399" y="33" fill="black" />
    <use xlink:href="#s3" x="408" y="33" fill="black" />
    <use xlink:href="#s3" x="411" y="33" fill="black" />
    <use xlink:href="#s3" x="417" y="33" fill="black" />
    <use xlink:href="#s3" x="420" y="33" fill="black" />
    <use xlink:href="#s3" x="429" y="33" fill="black" />
    <use xlink:href="#s3" x="438" y="33" fill="black" />
    <use xlink:href="#s3" x="441" y="33" fill="black" />
    <use xlink:href="#s3" x="444" y="33" fill="black" />
    <use xlink:href="#s3" x="453" y="33" fill="black" />
    <use xlink:href="#s3" x="456" y="33" fill="black" />
    <use xlink:href="#s3" x="462" y="33" fill="black" />
    <use xlink:href="#s3" x="465" y="33" fill="black" />
    <use xlink:href="#s3" x="477" y="33" fill="black" />
    <use xlink:href="#s3" x="483" y="33" fill="black" />
    <use xlink:href="#s3" x="495" y="33" fill="black" />
    <use xlink:href="#s3" x="498" y="33" fill="black" />
    <use xlink:href="#s3" x="510" y="33" fill="black" />
    <use xlink:href="#s3" x="513" y="33" fill="black" />
    <use xlink:href="#s3" x="516" y="33" fill="black" />
    <use xlink:href="#s3" x="522" y="33" fill="black" />
    <use xlink:href="#s3" x="528" y="33" fill="black" />
    <use xlink:href="#s3" x="531" y="33" fill="black" />
    <use xlink:href="#s4" x="48" y="224" fill="black" />
    <use xlink:href="#s5" x="84" y="224" fill="black" />
    <use xlink:href="#s6" x="120" y="224" fill="black" />
    <use xlink:href="#s7" x="156" y="224" fill="black" />
    <use xlink:href="#s8" x="192" y="224" fill="black" />
    <use xlink:href="#s9" x="228" y="224" fill="black" />
    <use xlink:href="#s10" x="264" y="224" fill="black" />
    <use xlink:href="#s11" x="300" y="224" fill="black" />
    <use xlink:href="#s12" x="336" y="224" fill="black" />
    <use xlink:href="#s13" x="372" y="224" fill="black" />
    <use xlink:href="#s14" x="408" y="224" fill="black" />
    <use xlink:href="#s15" x="444" y="224" fill="black" />
    <use xlink:href="#s16" x="480" y="224" fill="black" />
    <use xlink:href="#s17" x="516" y="224" fill="black" />
  </symbol>

  <use xlink:href="#g1" />
</svg>
